#!OML:ASF X:\für Bonn\!DataBase\2005_08_10_Bjorn_Final\c3d\bjorn.ASF
:FULLY-SPECIFIED
:DEGREES
733
root -0.0891098 1.55795 11.5287 -2069.4 -6.82002 188.827
lowerback -3.60817 0.0152203 -5.33802
upperback 3.75331 0.367125 -4.20101
thorax 5.93502 -0.0440361 -1.36929
lowerneck -17.6402 -5.61668 -0.327514
upperneck 6.58243 -8.47016 5.99725
head 5.10366 -3.90133 1.1165
rclavicle 0 -2.08724e-014
rhumerus -58.1995 44.2897 -104.591
rradius 112.569
rwrist -34.4586
rhand 11.0401 6.47506
rfingers 7.12502
rthumb 36.1122 -19.8138
lclavicle 0 -2.08724e-014
lhumerus -63.4747 -66.7276 107.991
lradius 113.019
lwrist 34.9538
lhand 6.55094 -11.8901
lfingers 7.12502
lthumb 31.8481 735.346
rfemur -368.524 -22.9394 366.993
rtibia 29.4175
rfoot 3.78182 -11.7848
rtoes 15.186
lfemur -8.44684 2.90091 -16.3758
ltibia 20.4489
lfoot 13.9496 -4.87346
ltoes -9.73744
734
root -0.0868752 1.55678 11.5273 -2069.44 -6.79172 188.784
lowerback -3.58273 0.0394844 -5.32565
upperback 3.78444 0.396438 -4.18868
thorax 5.95273 -0.0306668 -1.36123
lowerneck -17.6518 -5.62589 -0.359958
upperneck 6.52972 -8.47745 6.02777
head 5.09195 -3.90557 1.1307
rclavicle -4.77083e-014 9.14409e-015
rhumerus -58.1064 44.2932 -104.48
rradius 112.569
rwrist -34.4279
rhand 11.0871 6.4908
rfingers 7.12502
rthumb 36.1567 -19.7871
lclavicle -4.77083e-014 9.14409e-015
lhumerus -63.4157 -66.7928 107.969
lradius 112.992
lwrist 34.9621
lhand 6.47558 -11.8694
lfingers 7.12502
lthumb 31.7764 735.381
rfemur -368.49 -23.0504 366.987
rtibia 29.422
rfoot 3.75563 -11.8025
rtoes 15.1187
lfemur -8.34995 2.81109 -16.283
ltibia 20.4222
lfoot 13.6746 -4.1035
ltoes -9.15687
735
root -0.085203 1.55549 11.5268 -2069.47 -6.74903 188.752
lowerback -3.53262 0.0540898 -5.28595
upperback 3.7977 0.409045 -4.18493
thorax 5.93769 -0.0231177 -1.3782
lowerneck -17.6244 -5.62114 -0.342573
upperneck 6.45358 -8.47146 6.02575
head 5.06265 -3.90568 1.12988
rclavicle -2.38542e-014 3.8763e-014
rhumerus -58.0242 44.286 -104.416
rradius 112.542
rwrist -34.3823
rhand 11.175 6.47666
rfingers 7.12502
rthumb 36.2399 -19.7805
lclavicle -2.38542e-014 3.8763e-014
lhumerus -63.4051 -66.8401 107.977
lradius 112.97
lwrist 34.9898
lhand 6.3906 -11.8086
lfingers 7.12502
lthumb 31.6954 735.458
rfemur -368.447 -23.1442 367.003
rtibia 29.4303
rfoot 3.73355 -11.8358
rtoes 14.9156
lfemur -8.25382 2.68353 -16.1807
ltibia 20.3927
lfoot 13.3862 -3.36818
ltoes -8.89576
736
root -0.0837379 1.55437 11.5259 -2069.5 -6.70589 188.712
lowerback -3.49582 0.0784126 -5.24696
upperback 3.81184 0.435526 -4.17359
thorax 5.93095 -0.00906905 -1.38578
lowerneck -17.599 -5.62777 -0.360585
upperneck 6.3849 -8.47375 6.03417
head 5.03819 -3.90953 1.13677
rclavicle -1.11319e-014 -1.41137e-014
rhumerus -57.948 44.2773 -104.327
rradius 112.524
rwrist -34.3365
rhand 11.2052 6.50432
rfingers 7.12502
rthumb 36.2686 -19.7458
lclavicle -1.11319e-014 -1.41137e-014
lhumerus -63.42 -66.9012 108.023
lradius 112.955
lwrist 34.9946
lhand 6.26545 -11.7975
lfingers 7.12502
lthumb 31.5762 735.493
rfemur -368.418 -23.2715 367.021
rtibia 29.4353
rfoot 3.76529 -11.8291
rtoes 14.625
lfemur -8.16563 2.64462 -16.0793
ltibia 20.37
lfoot 13.107 -2.73582
ltoes -8.77381
737
root -0.083303 1.55349 11.5253 -2069.54 -6.67949 188.686
lowerback -3.45511 0.0870316 -5.21364
upperback 3.82582 0.441704 -4.17003
thorax 5.92222 -0.00495206 -1.40008
lowerneck -17.5947 -5.62394 -0.358295
upperneck 6.3395 -8.4645 6.01985
head 5.02208 -3.90726 1.13379
rclavicle -2.8625e-014 3.4191e-014
rhumerus -57.8787 44.28 -104.258
rradius 112.519
rwrist -34.2828
rhand 11.2773 6.47456
rfingers 7.12502
rthumb 36.3368 -19.7585
lclavicle -2.8625e-014 3.4191e-014
lhumerus -63.409 -66.9294 108.02
lradius 112.955
lwrist 35.0029
lhand 6.1715 -11.7205
lfingers 7.12502
lthumb 31.4867 735.587
rfemur -368.378 -23.4532 367.004
rtibia 29.4418
rfoot 3.86352 -11.7782
rtoes 14.1211
lfemur -8.07539 2.55222 -15.9998
ltibia 20.35
lfoot 12.8203 -2.00843
ltoes -8.26197
738
root -0.0826282 1.55267 11.525 -2069.55 -6.63694 188.66
lowerback -3.43938 0.0956566 -5.17954
upperback 3.84444 0.450352 -4.15356
thorax 5.93263 0.000112385 -1.40132
lowerneck -17.5922 -5.61922 -0.358608
upperneck 6.27683 -8.45372 6.01181
head 5.00121 -3.90451 1.13352
rclavicle -1.27222e-014 -1.03368e-014
rhumerus -57.7981 44.2924 -104.165
rradius 112.49
rwrist -34.1924
rhand 11.3316 6.51954
rfingers 7.12502
rthumb 36.3882 -19.7007
lclavicle -1.27222e-014 -1.03368e-014
lhumerus -63.3279 -66.9587 107.993
lradius 112.908
lwrist 35.0087
lhand 6.10528 -11.6922
lfingers 7.12502
lthumb 31.4236 735.628
rfemur -368.365 -23.5626 367.027
rtibia 29.4486
rfoot 3.89254 -11.7716
rtoes 13.8398
lfemur -8.00851 2.50989 -15.9088
ltibia 20.3306
lfoot 12.5527 -1.39964
ltoes -8.26155
739
root -0.0827896 1.55275 11.5233 -2069.59 -6.60711 188.625
lowerback -3.42234 0.115036 -5.12849
upperback 3.87022 0.471978 -4.16304
thorax 5.95003 0.0118581 -1.43831
lowerneck -17.5771 -5.61515 -0.339182
upperneck 6.21182 -8.45156 6.01822
head 4.97788 -3.90556 1.13408
rclavicle -4.77083e-015 -1.98785e-015
rhumerus -57.6917 44.2811 -104.09
rradius 112.477
rwrist -34.1418
rhand 11.3667 6.48956
rfingers 7.12502
rthumb 36.4214 -19.7223
lclavicle -4.77083e-015 -1.98785e-015
lhumerus -63.3208 -67.0159 107.983
lradius 112.903
lwrist 35.005
lhand 5.97692 -11.6645
lfingers 7.12502
lthumb 31.3013 735.679
rfemur -368.323 -23.6778 367.02
rtibia 29.4526
rfoot 3.92903 -11.7491
rtoes 13.5805
lfemur -7.91773 2.44917 -15.8354
ltibia 20.3144
lfoot 12.2803 -0.721696
ltoes -7.98274
740
root -0.0835468 1.55276 11.5227 -2069.61 -6.59202 188.614
lowerback -3.40214 0.120849 -5.10586
upperback 3.8786 0.476808 -4.16093
thorax 5.94725 0.0149873 -1.44832
lowerneck -17.5519 -5.61492 -0.348632
upperneck 6.15823 -8.44574 6.01714
head 4.95716 -3.90513 1.1373
rclavicle -3.49861e-014 3.3197e-014
rhumerus -57.6329 44.2876 -104.027
rradius 112.458
rwrist -34.0918
rhand 11.3733 6.49908
rfingers 7.12502
rthumb 36.4277 -19.7112
lclavicle -3.49861e-014 3.3197e-014
lhumerus -63.3063 -67.042 107.982
lradius 112.897
lwrist 35.0034
lhand 5.92727 -11.6004
lfingers 7.12502
lthumb 31.254 735.752
rfemur -368.292 -23.7874 367.001
rtibia 29.4505
rfoot 3.98374 -11.7175
rtoes 13.2679
lfemur -7.84917 2.40456 -15.7813
ltibia 20.3028
lfoot 12.0235 -0.129476
ltoes -7.56984
741
root -0.0845755 1.55295 11.5223 -2069.63 -6.5475 188.585
lowerback -3.39136 0.136033 -5.03125
upperback 3.90343 0.492446 -4.16744
thorax 5.96743 0.0250656 -1.49582
lowerneck -17.5454 -5.61093 -0.316041
upperneck 6.07514 -8.44427 6.00963
head 4.92829 -3.90761 1.13155
rclavicle -6.36111e-015 3.45885e-014
rhumerus -57.5337 44.266 -103.977
rradius 112.426
rwrist -34.0407
rhand 11.4139 6.46279
rfingers 7.12502
rthumb 36.4662 -19.7378
lclavicle -6.36111e-015 3.45885e-014
lhumerus -63.2654 -67.0993 107.953
lradius 112.873
lwrist 35.0071
lhand 5.80945 -11.5928
lfingers 7.12502
lthumb 31.1417 735.782
rfemur -368.261 -23.8453 367.025
rtibia 29.4458
rfoot 4.02654 -11.7153
rtoes 13.0625
lfemur -7.77701 2.3028 -15.6989
ltibia 20.2952
lfoot 11.7612 0.508533
ltoes -6.98852
742
root -0.0855079 1.55352 11.5213 -2069.66 -6.51671 188.571
lowerback -3.37561 0.143809 -4.99165
upperback 3.91526 0.499531 -4.15958
thorax 5.97083 0.029955 -1.50916
lowerneck -17.5175 -5.60665 -0.31138
upperneck 6.01347 -8.4343 5.99725
head 4.90338 -3.9058 1.12974
rclavicle 1.59028e-014 2.72335e-014
rhumerus -57.4689 44.2731 -103.905
rradius 112.406
rwrist -33.9912
rhand 11.4456 6.47308
rfingers 7.12502
rthumb 36.4962 -19.72
lclavicle 1.59028e-014 2.72335e-014
lhumerus -63.2581 -67.1166 107.965
lradius 112.865
lwrist 35.0088
lhand 5.75568 -11.5538
lfingers 7.12502
lthumb 31.0905 735.83
rfemur -368.229 -23.8938 367.031
rtibia 29.4391
rfoot 4.0597 -11.716
rtoes 12.8786
lfemur -7.70171 2.21299 -15.6351
ltibia 20.2863
lfoot 11.4915 1.09809
ltoes -6.48284
743
root -0.0871594 1.55322 11.521 -2069.68 -6.48858 188.563
lowerback -3.37122 0.149063 -4.94357
upperback 3.9374 0.504229 -4.15696
thorax 5.99184 0.0336728 -1.53323
lowerneck -17.505 -5.60223 -0.299211
upperneck 5.93336 -8.42524 5.98145
head 4.87465 -3.905 1.12551
rclavicle 2.38542e-014 -5.12864e-014
rhumerus -57.3663 44.2633 -103.814
rradius 112.381
rwrist -33.9173
rhand 11.4636 6.4717
rfingers 7.12502
rthumb 36.5132 -19.7171
lclavicle 2.38542e-014 -5.12864e-014
lhumerus -63.1803 -67.1531 107.915
lradius 112.843
lwrist 34.9999
lhand 5.68848 -11.5104
lfingers 7.12502
lthumb 31.0264 735.886
rfemur -368.198 -23.9866 367.034
rtibia 29.4261
rfoot 4.14293 -11.6649
rtoes 12.8495
lfemur -7.64395 2.12252 -15.5773
ltibia 20.2798
lfoot 11.2285 1.67717
ltoes -6.00038
744
root -0.0881148 1.55317 11.5203 -2069.7 -6.47134 188.55
lowerback -3.36301 0.152585 -4.90548
upperback 3.95987 0.50675 -4.1679
thorax 6.01118 0.0358499 -1.56615
lowerneck -17.4975 -5.59039 -0.26972
upperneck 5.86186 -8.41268 5.97427
head 4.84912 -3.90151 1.12129
rclavicle 2.06736e-014 -5.20816e-014
rhumerus -57.2907 44.2717 -103.772
rradius 112.359
rwrist -33.8789
rhand 11.4803 6.46642
rfingers 7.12502
rthumb 36.529 -19.7184
lclavicle 2.06736e-014 -5.20816e-014
lhumerus -63.1345 -67.1833 107.861
lradius 112.832
lwrist 34.9836
lhand 5.58285 -11.4917
lfingers 7.12502
lthumb 30.9257 735.924
rfemur -368.167 -23.9701 367.036
rtibia 29.4157
rfoot 4.15473 -11.7023
rtoes 13.0363
lfemur -7.57767 2.06535 -15.5327
ltibia 20.271
lfoot 10.9894 2.2185
ltoes -5.66532
